<?xml version="1.0" encoding="UTF-8"?>
<svg id="Layer_1" data-name="Layer 1" xmlns="http://www.w3.org/2000/svg" viewBox="0 0 98.5 21.51">
  <path fill="#2b99bb"
    d="M12.22,14.03c0,4.06-2.06,6.15-6.27,6.15-2.92,0-5.12-1.35-5.95-3.98l1.26-.31c.72,2.09,2.55,3.01,4.7,3.01,3.46,0,4.98-1.57,4.98-4.9V0h1.29v14.03Z" />
  <polygon fill="#1a87b3"
    points="21.14 .1 12.46 10.06 21.71 20.08 23.43 20.08 14.07 10.03 22.68 .1 21.14 .1" />
  <line class="cls-4" stroke="#454545" x1="37.34" y1=".68" x2="28" y2="21.3" />
  <line class="cls-4" stroke="#454545" x1="37.34" y1=".68" x2="28" y2="21.3" />
  <g>
    <path fill="#454545" d="M50.86,5.82l-4.07,12.04h-.91l-4.07-12.04h.81l3.72,10.97,3.71-10.97h.81Z" />
    <path fill="#454545"
      d="M62.17,5.82l-3.98,8.05v3.98h-.78v-3.98l-3.98-8.05h.86l3.5,7.16,3.52-7.16h.86ZM59.02,2.28l-1.71,2.55h-.76l1.47-2.55h1Z" />
    <path fill="#454545"
      d="M74.03,12.73c0,3.07-1.02,5.28-4.31,5.28s-4.31-2.31-4.31-5.28v-6.91h.78v6.88c0,2.33.57,4.53,3.53,4.53s3.52-2.21,3.52-4.53v-6.88h.79v6.91Z" />
    <path fill="#454545"
      d="M78.21,17.85V5.82h.79v12.04h-.79ZM80.05,11.8l5.64,6.05h-1.03l-5.57-6.03,5.22-6h.93l-5.19,5.98Z" />
    <path fill="#454545"
      d="M98.5,17.85h-.83l-1.4-3.69h-5.83l-1.41,3.69h-.81l4.62-12.04h1.03l4.62,12.04ZM96,13.47l-2.66-6.91-2.64,6.91h5.29Z" />
  </g>
</svg>